<svg width="855.2749267578125px" height="190.4px" xmlns="http://www.w3.org/2000/svg" viewBox="-177.63746337890626 -20.200000000000003 855.2749267578125 190.4" style="background: rgba(0, 0, 0, 0);" preserveAspectRatio="xMidYMid"><defs><filter id="editing-hole" x="-100%" y="-100%" width="300%" height="300%"><feFlood flood-color="#000000" result="black"></feFlood><feMorphology operator="dilate" radius="2" in="SourceGraphic" result="erode"></feMorphology><feGaussianBlur in="erode" stdDeviation="4" result="blur"></feGaussianBlur><feOffset in="blur" dx="2" dy="2" result="offset"></feOffset><feComposite operator="atop" in="offset" in2="black" result="merge"></feComposite><feComposite operator="in" in="merge" in2="SourceGraphic" result="inner-shadow"></feComposite></filter></defs><g filter="url(#editing-hole)"><g transform="translate(-57.180036544799805, 109.03499698638916)"><path d="M5.58-0.93L6.79-0.93L6.79-0.93Q9.21-0.93 10.93-2.65L10.93-2.65L10.93-2.65Q12.65-4.37 12.74-6.79L12.74-6.79L12.74-58.87L12.74-58.87Q12.74-61.10 10.97-62.64L10.97-62.64L10.97-62.64Q9.21-64.17 6.79-64.17L6.79-64.17L5.67-64.17L5.58-65.10L24.46-65.10L24.46-65.10Q27.34-65.10 30.74-65.66L30.74-65.66L30.74-65.66Q34.13-66.22 35.53-66.77L35.53-66.77L35.53-55.06L34.60-55.06L34.60-56.73L34.60-56.73Q34.60-58.96 33.06-60.54L33.06-60.54L33.06-60.54Q31.53-62.12 29.39-62.22L29.39-62.22L18.79-62.22L18.79-33.48L36.46-33.48L36.46-33.48Q38.32-33.57 39.62-34.88L39.62-34.88L39.62-34.88Q40.92-36.18 40.92-38.13L40.92-38.13L40.92-39.43L41.85-39.43L41.85-24.74L40.92-24.74L40.92-26.13L40.92-26.13Q40.92-27.99 39.66-29.29L39.66-29.29L39.66-29.29Q38.41-30.60 36.55-30.69L36.55-30.69L18.79-30.69L18.79-2.88L38.59-2.88L38.59-2.88Q45.48-2.88 49.10-5.95L49.10-5.95L49.10-5.95Q52.73-9.02 55.15-15.07L55.15-15.07L56.08-15.07L50.69 0L5.58 0L5.58-0.93ZM119.04-0.93L119.04 0L96.35 0L96.35-0.93L97.46-0.93L97.46-0.93Q99.51-0.93 100.63-2.79L100.63-2.79L100.63-2.79Q101.28-3.81 101.28-4.74L101.28-4.74L101.28-4.74Q101.28-5.67 100.81-6.60L100.81-6.60L86.49-29.20L72.17-6.70L72.17-6.70Q71.61-5.77 71.61-4.79L71.61-4.79L71.61-4.79Q71.61-3.81 72.26-2.88L72.26-2.88L72.26-2.88Q73.47-0.93 75.42-0.93L75.42-0.93L76.63-0.93L76.63 0L55.52 0L55.52-0.93L56.82-0.93L56.82-0.93Q59.61-0.93 62.12-2.51L62.12-2.51L62.12-2.51Q64.64-4.09 66.31-6.42L66.31-6.42L84.07-32.92L67.80-58.68L67.80-58.68Q66.12-61.01 63.66-62.59L63.66-62.59L63.66-62.59Q61.19-64.17 58.40-64.17L58.40-64.17L57.10-64.17L57.10-65.10L79.61-65.10L79.61-64.17L78.49-64.17L78.49-64.17Q76.54-64.17 75.33-62.31L75.33-62.31L75.33-62.31Q74.68-61.29 74.68-60.36L74.68-60.36L74.68-60.36Q74.68-59.43 75.14-58.50L75.14-58.50L87.98-38.41L100.63-58.40L100.63-58.40Q101.18-59.33 101.18-60.31L101.18-60.31L101.18-60.31Q101.18-61.29 100.63-62.22L100.63-62.22L100.63-62.22Q99.51-64.17 97.46-64.17L97.46-64.17L96.35-64.17L96.35-65.10L117.27-65.10L117.27-64.17L115.97-64.17L115.97-64.17Q113.18-64.17 110.72-62.59L110.72-62.59L110.72-62.59Q108.25-61.01 106.58-58.68L106.58-58.68L90.30-34.69L108.34-6.32L108.34-6.32Q110.58-3.16 114.02-1.67L114.02-1.67L114.02-1.67Q115.88-0.93 117.74-0.93L117.74-0.93L119.04-0.93ZM167.03-47.15L167.03-47.15L167.03-47.15Q167.03-43.06 165.35-39.52L165.35-39.52L165.35-39.52Q162.28-32.92 154.57-30.32L154.57-30.32L154.57-30.32Q151.87-29.39 149.92-29.39L149.92-29.39L149.92-29.39Q144.15-29.39 139.97-31.53L139.97-31.53L139.97-32.46L139.97-32.46Q146.75-30.97 152.52-33.95L152.52-33.95L152.52-33.95Q157.63-36.55 159.50-42.50L159.50-42.50L159.50-42.50Q160.05-44.36 160.05-46.03L160.05-46.03L160.05-46.03Q160.05-47.71 160.05-48.08L160.05-48.08L160.05-48.08Q159.87-54.59 156.61-58.45L156.61-58.45L156.61-58.45Q153.36-62.31 147.50-62.31L147.50-62.31L136.80-62.31L136.80-6.79L136.80-6.79Q136.90-4.37 138.62-2.65L138.62-2.65L138.62-2.65Q140.34-0.93 142.75-0.93L142.75-0.93L143.96-0.93L143.96 0L123.60 0L123.60-0.93L124.81-0.93L124.81-0.93Q127.22-0.93 128.94-2.65L128.94-2.65L128.94-2.65Q130.66-4.37 130.76-6.79L130.76-6.79L130.76-58.78L130.76-58.78Q130.48-61.10 128.81-62.64L128.81-62.64L128.81-62.64Q127.13-64.17 124.81-64.17L124.81-64.17L123.69-64.17L123.60-65.10L147.87-65.10L147.87-65.10Q156.80-65.10 161.91-60.31L161.91-60.31L161.91-60.31Q167.03-55.52 167.03-47.15ZM176.79-0.93L178.00-0.93L178.00-0.93Q180.42-0.93 182.14-2.65L182.14-2.65L182.14-2.65Q183.86-4.37 183.95-6.79L183.95-6.79L183.95-58.87L183.95-58.87Q183.95-61.10 182.19-62.64L182.19-62.64L182.19-62.64Q180.42-64.17 178.00-64.17L178.00-64.17L176.89-64.17L176.79-65.10L204.04-65.10L204.04-65.10Q206.93-65.10 210.32-65.66L210.32-65.66L210.32-65.66Q213.71-66.22 215.11-66.77L215.11-66.77L215.11-55.06L214.18-55.06L214.18-56.73L214.18-56.73Q214.18-58.96 212.64-60.54L212.64-60.54L212.64-60.54Q211.11-62.12 208.97-62.22L208.97-62.22L190.00-62.22L190.00-33.48L205.72-33.48L205.72-33.48Q207.58-33.57 208.88-34.88L208.88-34.88L208.88-34.88Q210.18-36.18 210.18-38.13L210.18-38.13L210.18-39.43L211.11-39.43L211.11-24.74L210.18-24.74L210.18-26.13L210.18-26.13Q210.18-27.99 208.92-29.29L208.92-29.29L208.92-29.29Q207.67-30.60 205.81-30.69L205.81-30.69L190.00-30.69L190.00-2.88L203.30-2.88L203.30-2.88Q210.18-2.88 213.81-5.95L213.81-5.95L213.81-5.95Q217.43-9.02 219.85-15.07L219.85-15.07L220.78-15.07L215.39 0L176.79 0L176.79-0.93ZM248.68-62.22L248.68-62.22L242.73-62.22L242.73-6.79L242.73-6.79Q242.73-4.37 244.45-2.65L244.45-2.65L244.45-2.65Q246.17-0.93 248.68-0.93L248.68-0.93L249.80-0.93L249.89 0L229.52 0L229.52-0.93L230.73-0.93L230.73-0.93Q233.15-0.93 234.87-2.60L234.87-2.60L234.87-2.60Q236.59-4.28 236.69-6.70L236.69-6.70L236.69-58.31L236.69-58.31Q236.59-60.73 234.87-62.45L234.87-62.45L234.87-62.45Q233.15-64.17 230.73-64.17L230.73-64.17L229.52-64.17L229.52-65.10L254.63-65.10L254.63-65.10Q263.10-65.10 267.93-60.40L267.93-60.40L267.93-60.40Q272.77-55.71 272.77-48.22L272.77-48.22L272.77-48.22Q272.77-40.73 268.17-35.29L268.17-35.29L268.17-35.29Q263.56-29.85 256.96-29.85L256.96-29.85L256.96-29.85Q258.35-29.20 260.26-27.30L260.26-27.30L260.26-27.30Q262.17-25.39 263.65-23.34L263.65-23.34L263.65-23.34Q271.65-11.90 274.07-9.25L274.07-9.25L274.07-9.25Q276.49-6.60 277.51-5.63L277.51-5.63L277.51-5.63Q278.53-4.65 279.74-3.72L279.74-3.72L279.74-3.72Q280.95-2.79 282.16-2.23L282.16-2.23L282.16-2.23Q284.86-0.93 287.93-0.93L287.93-0.93L287.93 0L282.81 0L282.81 0Q278.81 0 275.37-1.44L275.37-1.44L275.37-1.44Q271.93-2.88 270.21-4.42L270.21-4.42L270.21-4.42Q268.49-5.95 267.24-7.39L267.24-7.39L267.24-7.39Q265.98-8.83 260.31-17.02L260.31-17.02L260.31-17.02Q254.63-25.20 253.70-26.37L253.70-26.37L253.70-26.37Q252.77-27.53 251.75-28.64L251.75-28.64L251.75-28.64Q248.77-31.81 245.80-31.81L245.80-31.81L245.80-32.74L245.80-32.74Q246.54-32.64 247.75-32.64L247.75-32.64L247.75-32.64Q248.96-32.64 250.73-32.74L250.73-32.74L250.73-32.74Q262.26-33.02 265.24-42.41L265.24-42.41L265.24-42.41Q265.79-44.27 265.79-45.90L265.79-45.90L265.79-45.90Q265.79-47.52 265.79-47.99L265.79-47.99L265.79-47.99Q265.61-54.22 262.54-58.03L262.54-58.03L262.54-58.03Q259.47-61.84 254.26-62.12L254.26-62.12L254.26-62.12Q252.03-62.22 248.68-62.22ZM289.69-0.93L290.90-0.93L290.90-0.93Q293.32-0.93 295.04-2.65L295.04-2.65L295.04-2.65Q296.76-4.37 296.86-6.79L296.86-6.79L296.86-58.40L296.86-58.40Q296.76-60.82 295.04-62.50L295.04-62.50L295.04-62.50Q293.32-64.17 290.90-64.17L290.90-64.17L289.69-64.17L289.69-65.10L310.06-65.10L310.06-64.17L308.85-64.17L308.85-64.17Q306.43-64.17 304.71-62.50L304.71-62.50L304.71-62.50Q302.99-60.82 302.90-58.40L302.90-58.40L302.90-6.79L302.90-6.79Q302.90-4.37 304.67-2.65L304.67-2.65L304.67-2.65Q306.43-0.93 308.85-0.93L308.85-0.93L310.06-0.93L310.06 0L289.69 0L289.69-0.93ZM321.13-0.93L322.34-0.93L322.34-0.93Q324.76-0.93 326.48-2.65L326.48-2.65L326.48-2.65Q328.20-4.37 328.29-6.79L328.29-6.79L328.29-58.87L328.29-58.87Q328.29-61.10 326.52-62.64L326.52-62.64L326.52-62.64Q324.76-64.17 322.34-64.17L322.34-64.17L321.22-64.17L321.13-65.10L348.38-65.10L348.38-65.10Q351.26-65.10 354.66-65.66L354.66-65.66L354.66-65.66Q358.05-66.22 359.44-66.77L359.44-66.77L359.44-55.06L358.51-55.06L358.51-56.73L358.51-56.73Q358.51-58.96 356.98-60.54L356.98-60.54L356.98-60.54Q355.45-62.12 353.31-62.22L353.31-62.22L334.33-62.22L334.33-33.48L350.05-33.48L350.05-33.48Q351.91-33.57 353.21-34.88L353.21-34.88L353.21-34.88Q354.52-36.18 354.52-38.13L354.52-38.13L354.52-39.43L355.45-39.43L355.45-24.74L354.52-24.74L354.52-26.13L354.52-26.13Q354.52-27.99 353.26-29.29L353.26-29.29L353.26-29.29Q352.00-30.60 350.14-30.69L350.14-30.69L334.33-30.69L334.33-2.88L347.63-2.88L347.63-2.88Q354.52-2.88 358.14-5.95L358.14-5.95L358.14-5.95Q361.77-9.02 364.19-15.07L364.19-15.07L365.12-15.07L359.72 0L321.13 0L321.13-0.93ZM443.24-64.17L441.56-64.17L441.56-64.17Q439.24-64.17 437.56-62.54L437.56-62.54L437.56-62.54Q435.89-60.91 435.80-58.59L435.80-58.59L435.80-10.60L435.80-10.60Q435.80-5.21 436.45-0.37L436.45-0.37L436.63 1.30L435.80 1.30L385.11-52.82L385.11-6.51L385.11-6.51Q385.11-4.18 386.79-2.56L386.79-2.56L386.79-2.56Q388.46-0.93 390.79-0.93L390.79-0.93L392.55-0.93L392.55 0L373.39 0L373.39-0.93L375.16-0.93L375.16-0.93Q377.49-0.93 379.16-2.56L379.16-2.56L379.16-2.56Q380.83-4.18 380.83-6.60L380.83-6.60L380.83-54.87L380.83-54.87Q380.83-60.54 380.18-65.01L380.18-65.01L380.00-66.50L380.93-66.50L431.61-12.37L431.61-58.50L431.61-58.50Q431.52-60.91 429.85-62.54L429.85-62.54L429.85-62.54Q428.17-64.17 425.85-64.17L425.85-64.17L424.08-64.17L424.08-65.10L443.24-65.10L443.24-64.17ZM484.34 1.30L484.34 1.30Q469.65 1.21 460.40-8.09L460.40-8.09L460.40-8.09Q451.14-17.39 451.14-32.60L451.14-32.60L451.14-32.60Q451.14-47.80 460.40-57.10L460.40-57.10L460.40-57.10Q469.65-66.40 484.90-66.40L484.90-66.40L484.90-66.40Q497.36-66.40 506.94-60.08L506.94-60.08L508.80-46.96L507.97-46.96L507.97-46.96Q505.92-54.96 499.69-59.29L499.69-59.29L499.69-59.29Q493.46-63.61 484.90-63.61L484.90-63.61L484.90-63.61Q472.72-63.61 465.42-55.15L465.42-55.15L465.42-55.15Q458.12-46.69 458.12-32.74L458.12-32.74L458.12-32.74Q458.12-18.79 465.33-10.28L465.33-10.28L465.33-10.28Q472.53-1.77 484.34-1.49L484.34-1.49L484.34-1.49Q494.76-1.49 501.74-7.16L501.74-7.16L501.74-7.16Q509.27-13.30 510.85-27.16L510.85-27.16L511.59-27.16L510.48-12.55L510.48-12.55Q502.01 1.30 484.34 1.30L484.34 1.30ZM521.82-0.93L523.03-0.93L523.03-0.93Q525.45-0.93 527.17-2.65L527.17-2.65L527.17-2.65Q528.89-4.37 528.98-6.79L528.98-6.79L528.98-58.87L528.98-58.87Q528.98-61.10 527.22-62.64L527.22-62.64L527.22-62.64Q525.45-64.17 523.03-64.17L523.03-64.17L521.92-64.17L521.82-65.10L549.07-65.10L549.07-65.10Q551.95-65.10 555.35-65.66L555.35-65.66L555.35-65.66Q558.74-66.22 560.14-66.77L560.14-66.77L560.14-55.06L559.21-55.06L559.21-56.73L559.21-56.73Q559.21-58.96 557.67-60.54L557.67-60.54L557.67-60.54Q556.14-62.12 554.00-62.22L554.00-62.22L535.03-62.22L535.03-33.48L550.75-33.48L550.75-33.48Q552.61-33.57 553.91-34.88L553.91-34.88L553.91-34.88Q555.21-36.18 555.21-38.13L555.21-38.13L555.21-39.43L556.14-39.43L556.14-24.74L555.21-24.74L555.21-26.13L555.21-26.13Q555.21-27.99 553.95-29.29L553.95-29.29L553.95-29.29Q552.70-30.60 550.84-30.69L550.84-30.69L535.03-30.69L535.03-2.88L548.33-2.88L548.33-2.88Q555.21-2.88 558.84-5.95L558.84-5.95L558.84-5.95Q562.46-9.02 564.88-15.07L564.88-15.07L565.81-15.07L560.42 0L521.82 0L521.82-0.93ZM575.58-3.81L575.58-3.81L575.58-3.81Q575.30-5.12 575.30-8.83L575.30-8.83L575.30-8.83Q575.30-12.55 576.69-16.74L576.69-16.74L577.53-16.74L577.53-16.74Q577.44-15.72 577.44-14.69L577.44-14.69L577.44-14.69Q577.44-9.02 580.88-5.25L580.88-5.25L580.88-5.25Q584.32-1.49 589.99-1.49L589.99-1.49L589.99-1.49Q595.85-1.49 599.62-5.02L599.62-5.02L599.62-5.02Q603.38-8.56 603.38-13.90L603.38-13.90L603.38-13.90Q603.38-19.25 599.76-22.60L599.76-22.60L581.90-39.15L581.90-39.15Q576.88-43.80 576.88-50.41L576.88-50.41L576.88-50.41Q576.88-57.01 581.30-61.71L581.30-61.71L581.30-61.71Q585.71-66.40 593.25-66.40L593.25-66.40L593.25-66.40Q596.78-66.40 601.25-65.47L601.25-65.47L604.87-65.47L604.87-54.03L604.03-54.03L604.03-54.03Q604.03-58.40 601.01-61.01L601.01-61.01L601.01-61.01Q597.99-63.61 593.25-63.61L593.25-63.61L593.25-63.61Q588.50-63.61 585.30-60.45L585.30-60.45L585.30-60.45Q582.09-57.29 582.09-52.55L582.09-52.55L582.09-52.55Q582.09-47.80 585.81-44.36L585.81-44.36L604.13-27.43L604.13-27.43Q608.78-23.16 608.78-15.72L608.78-15.72L608.78-15.72Q608.78-8.28 604.03-3.49L604.03-3.49L604.03-3.49Q599.29 1.30 591.39 1.30L591.39 1.30L591.39 1.30Q587.29 1.30 582.69 0.05L582.69 0.05L582.69 0.05Q578.09-1.21 575.58-3.81Z" fill="#f0f0f0"></path></g></g><style>text {
  font-size: 64px;
  font-family: Arial Black;
  dominant-baseline: central;
  text-anchor: middle;
}</style></svg>